<?xml version="1.0" encoding="UTF-8"?><svg xmlns="http://www.w3.org/2000/svg" viewBox="0 0 500 500"><defs><style>.e{fill:#00adee;stroke:#1b75bb;stroke-width:3px;}.e,.f{stroke-miterlimit:10;}.g{fill:#00aeef;}.f{fill:#fff;stroke:#27aae1;stroke-width:12px;}</style></defs><g id="a"><rect class="f" x="36.33" y="36.6" width="427.08" height="427.08" rx="46.2" ry="46.2"/></g><g id="b"><circle class="g" cx="247.24" cy="249.26" r="187.39"/></g><g id="c"><g><path class="e" d="M358.48,364.53c7.58-10.77,61.67-47.54,79.24-57.71-5.43,23.17-14.14,77.93-23.32,99.23-12.81,27.3-37.44,28.21-53.61,16.71-16.29-11.59-23.98-35.77-2.31-58.23h0Z"/><path class="e" d="M391.6,445.63c4.41-6.27,35.89-27.67,46.12-33.59-3.16,13.49-8.23,45.36-13.57,57.76-7.46,15.89-21.79,16.42-31.2,9.73-9.48-6.74-13.96-20.82-1.35-33.89h0Z"/><path class="e" d="M438.78,366.85c2.86-4.06,23.28-17.94,29.91-21.78-2.05,8.75-5.34,29.41-8.8,37.46-4.84,10.3-14.13,10.65-20.23,6.31-6.15-4.37-9.05-13.5-.87-21.98h0Z"/></g></g><g id="d"><g><path class="e" d="M21.42,69.95c7.58-10.77,61.67-47.54,79.24-57.71-5.43,23.17-14.14,77.93-23.32,99.23-12.81,27.3-37.44,28.21-53.61,16.71C7.44,116.59-.25,92.41,21.42,69.95h0Z"/><path class="e" d="M54.54,151.05c4.41-6.27,35.89-27.67,46.12-33.59-3.16,13.49-8.23,45.36-13.57,57.76-7.46,15.89-21.79,16.42-31.2,9.73-9.48-6.74-13.96-20.82-1.35-33.89h0Z"/><path class="e" d="M101.73,72.28c2.86-4.06,23.28-17.94,29.91-21.78-2.05,8.75-5.34,29.41-8.8,37.46-4.84,10.3-14.13,10.65-20.23,6.31-6.15-4.37-9.05-13.5-.87-21.98h0Z"/></g></g></svg>