<?xml version="1.0" encoding="UTF-8"?><svg xmlns="http://www.w3.org/2000/svg" viewBox="0 0 500 500"><defs><style>.e,.f{fill:#fff;}.f{stroke:#006838;stroke-miterlimit:10;stroke-width:12px;}.g{fill:#8dc63f;}</style></defs><g id="a"><rect class="f" x="36.33" y="36.6" width="427.08" height="427.08" rx="46.2" ry="46.2"/></g><g id="b"><circle class="g" cx="247.24" cy="249.26" r="187.39"/></g><g id="c"><path class="e" d="M323.16,410.21s39.5-15.85,69.76-65.28c0,0-9.47,47.72-63.45,72.96,0,0,15.14,10.04,36.68,4.69,0,0,76.38-23.88,48.28-122.15,0,0-91.07,50.04-91.28,109.77Z"/><path class="g" d="M349.39,414.3s42.33,4.41,92.16-25.19c0,0-30.64,37.79-90.16,34.93,0,0,8.71,15.94,30.26,21.26,0,0,78.7,14.51,99.69-85.52,0,0-103.9,1.77-131.95,54.52Z"/></g><g id="d"><path class="e" d="M185.1,82.12s-39.5,15.85-69.76,65.28c0,0,9.47-47.72,63.45-72.96,0,0-15.14-10.04-36.68-4.69,0,0-76.38,23.88-48.28,122.15,0,0,91.07-50.04,91.28-109.77Z"/><path class="g" d="M158.86,78.03s-42.33-4.41-92.16,25.19c0,0,30.64-37.79,90.16-34.93,0,0-8.71-15.94-30.26-21.26,0,0-78.7-14.51-99.69,85.52,0,0,103.9-1.77,131.95-54.52Z"/></g></svg>