<?xml version="1.0" encoding="UTF-8"?><svg xmlns="http://www.w3.org/2000/svg" viewBox="0 0 500 500"><defs><style>.e{fill:#fff;stroke:#be1e2d;stroke-miterlimit:10;stroke-width:12px;}.f{fill:#f15a29;}.g{fill:#fff200;}.h{fill:#ed1c24;}</style></defs><g id="a"><rect class="e" x="36.33" y="36.6" width="427.08" height="427.08" rx="46.2" ry="46.2"/></g><g id="b"><circle class="f" cx="247.24" cy="249.26" r="187.39"/></g><g id="c"><g><g><path class="g" d="M401.26,385.81c-5.84,6.29-11.67,12.59-17.51,18.88,.82,7.06,2.53,13.88,5.73,20.27,2.9,5.77,7.24,9.95,13.41,12.08,3.53,1.22,7.24,1.55,10.93,1.89,12.79,1.2,25.02,4.37,36.57,10.06,.17,.08,.35,.12,.58,.2,.03-.23,.06-.37,.06-.51-.07-4.64-.02-9.28-.26-13.91-.49-9.52-3.82-18.01-9.59-25.57-2.96-3.88-6.76-6.83-10.81-9.47-7.23-4.71-15.01-8.36-23-11.57-2.03-.81-4.07-1.58-6.11-2.37Z"/><path class="h" d="M477.32,489.31c-.15-.14-.28-.3-.45-.41-4.2-2.63-8.32-5.4-12.61-7.86-10.08-5.78-20.83-9.78-32.38-11.46-5.25-.77-10.54-1.34-15.79-2.08-6.4-.91-12.43-2.87-17.84-6.51-1.33-.89-2.61-1.84-3.92-2.76-.98-.91-1.97-1.83-2.95-2.74-.95-1.17-1.94-2.31-2.85-3.51-4.52-6.01-7.02-12.84-8.08-20.23-1.08-7.58-.79-15.12,1.07-22.57,.26-1.04,.62-2.05,.93-3.07l1.31-1.41c.82,7.06,2.53,13.88,5.73,20.27,2.9,5.77,7.24,9.95,13.41,12.08,3.53,1.22,7.24,1.55,10.93,1.89,12.79,1.2,25.02,4.37,36.57,10.06,.17,.08,.35,.12,.58,.2,.03-.23,.06-.37,.06-.51-.07-4.64-.02-9.28-.26-13.91-.49-9.52-3.82-18.01-9.59-25.57-2.96-3.88-6.76-6.83-10.81-9.47-7.23-4.71-15.01-8.36-23-11.57-2.03-.81-4.07-1.58-6.11-2.37l.12-.13c3.18-.44,6.34-.99,9.53-1.3,9.58-.95,19-.25,28.14,2.98,5.66,2,10.83,4.87,15.48,8.68,.29,.24,.62,.42,.94,.62l3.34,3.1c.17,.23,.32,.49,.51,.69,5.19,5.37,9.1,11.58,12.12,18.38,4.79,10.81,7.03,22.21,7.89,33.93,.85,11.63,.23,23.22-1.29,34.77-.04,.33,0,.68,0,1.02-.24,.26-.48,.51-.71,.77Zm-26.71-38.49c-11.7-5.88-24.12-9.16-37.14-10.38-3.19-.3-6.41-.71-9.5-1.5-7.41-1.9-12.55-6.65-15.94-13.42-2.3-4.6-3.79-9.47-4.85-14.49-.06-.28-.12-.56-.33-.86-.16,.72-.34,1.44-.47,2.16-1.61,9.05-1.41,18.03,1.34,26.85,2.2,7.05,6.01,13.07,11.71,17.82,5.55,4.63,11.93,7.52,19.07,8.64,4.73,.74,9.48,1.32,14.24,1.89,14.46,1.72,27.71,6.8,40.08,14.32,1.3,.79,2.59,1.59,3.86,2.4,1.25,.8,2.49,1.62,3.81,2.49,.07-.27,.16-.47,.18-.69,1.74-13.91,2.18-27.82,.22-41.74-1.52-10.78-4.43-21.13-9.77-30.7-3.33-5.97-7.49-11.28-12.71-15.7-6.92-5.86-14.9-9.54-23.79-11.25-7.71-1.49-15.44-1.41-23.19-.34-.05,0-.1,.04-.24,.1,1.66,.69,3.27,1.33,4.86,2.02,7.05,3.05,13.9,6.48,20.31,10.76,10.27,6.85,16.4,16.48,18.99,28.43,1.42,6.58,1.35,13.28,1.24,19.98-.02,1.31-.06,2.62-.1,4.13-.74-.36-1.32-.62-1.89-.91Z"/><path class="h" d="M452.49,451.73c-.74-.36-1.32-.62-1.89-.91-11.7-5.88-24.12-9.16-37.14-10.38-3.19-.3-6.41-.71-9.5-1.5-7.41-1.9-12.55-6.65-15.94-13.42-2.3-4.6-3.79-9.47-4.85-14.49-.06-.28-.12-.56-.33-.86-.16,.72-.34,1.44-.47,2.16-1.61,9.05-1.41,18.03,1.34,26.85,2.2,7.05,6.01,13.07,11.71,17.82,5.55,4.63,11.93,7.52,19.07,8.64,4.73,.74,9.48,1.32,14.24,1.89,14.46,1.72,27.71,6.8,40.08,14.32,1.3,.79,2.59,1.59,3.86,2.4,1.25,.8,2.49,1.62,3.81,2.49,.07-.27,.16-.47,.18-.69,1.74-13.91,2.18-27.82,.22-41.74-1.52-10.78-4.43-21.13-9.77-30.7-3.33-5.97-7.49-11.28-12.71-15.7-6.92-5.86-14.9-9.54-23.79-11.25-7.71-1.49-15.44-1.41-23.19-.34-.05,0-.1,.04-.24,.1,1.66,.69,3.27,1.33,4.86,2.02,7.05,3.05,13.9,6.48,20.31,10.76,10.27,6.85,16.4,16.48,18.99,28.43,1.42,6.58,1.35,13.28,1.24,19.98-.02,1.31-.06,2.62-.1,4.13Z"/></g><g><path class="g" d="M340.24,388.81c6.72-3.04,13.44-6.09,20.16-9.13,5.54,2.59,10.62,5.84,14.96,10.19,3.92,3.93,6.14,8.61,6.2,14.22,.03,3.21-.71,6.33-1.43,9.42-2.51,10.75-3.25,21.59-1.75,32.55,.02,.16,0,.32,0,.53-.19-.04-.32-.05-.43-.09-3.76-1.32-7.56-2.54-11.27-4-7.62-2.99-13.64-8.02-18.23-14.78-2.36-3.47-3.73-7.37-4.78-11.39-1.87-7.18-2.73-14.51-3.16-21.9-.11-1.87-.18-3.75-.27-5.62Z"/><path class="h" d="M403.07,479.36c-.28-.09-.55-.21-.83-.27-9.83-1.9-19.44-4.55-28.69-8.41-9.32-3.89-18-8.82-25.51-15.67-4.72-4.31-8.72-9.19-11.68-14.88-.11-.22-.28-.41-.42-.61l-1.62-3.57c-.08-.31-.14-.63-.25-.93-1.83-4.83-2.77-9.82-2.86-14.98-.14-8.33,1.85-16.2,5.23-23.75,1.13-2.51,2.43-4.95,3.66-7.42l.14-.06c.09,1.87,.16,3.75,.27,5.62,.44,7.39,1.29,14.72,3.16,21.9,1.05,4.02,2.42,7.92,4.78,11.39,4.59,6.76,10.61,11.79,18.23,14.78,3.71,1.45,7.51,2.67,11.27,4,.11,.04,.24,.05,.43,.09,0-.21,.02-.37,0-.53-1.5-10.96-.75-21.8,1.75-32.55,.72-3.1,1.46-6.21,1.43-9.42-.05-5.61-2.28-10.29-6.2-14.22-4.34-4.35-9.42-7.6-14.96-10.19l1.51-.68c.92,.02,1.84,0,2.75,.08,6.58,.51,12.8,2.33,18.69,5.27,5.73,2.87,10.62,6.77,14.29,12.09,.73,1.07,1.39,2.19,2.09,3.28,.48,1.05,.95,2.1,1.43,3.15,.4,1.32,.82,2.62,1.19,3.95,1.49,5.4,1.45,10.85,.45,16.32-.82,4.49-1.8,8.95-2.6,13.44-1.77,9.87-1.44,19.72,.53,29.51,.84,4.17,1.97,8.28,2.97,12.42,.04,.17,.14,.32,.21,.48-.27,.12-.55,.25-.82,.37Zm-23.05-30.84c-1.24-.38-2.32-.7-3.39-1.04-5.48-1.73-10.97-3.5-15.94-6.45-9.04-5.36-15.21-12.98-18-23.22-1.74-6.39-2.67-12.91-3.24-19.49-.13-1.48-.21-2.97-.32-4.51-.08,.09-.13,.12-.15,.17-2.98,6.03-5.15,12.31-6.03,19-1.02,7.72-.2,15.22,2.69,22.46,2.18,5.46,5.38,10.3,9.34,14.64,6.35,6.96,13.99,12.15,22.36,16.32,10.81,5.39,22.28,8.82,34.09,11.19,.18,.04,.37,.02,.61,.04-.35-1.31-.68-2.55-.99-3.79-.32-1.26-.62-2.53-.91-3.8-2.76-12.14-3.3-24.32-.76-36.57,.83-4.03,1.66-8.06,2.34-12.12,1.03-6.12,.41-12.11-1.85-17.89-2.32-5.94-6.19-10.69-11.34-14.4-6.45-4.65-13.71-7.25-21.52-8.4-.63-.09-1.26-.14-1.89-.21,.19,.25,.4,.38,.61,.5,3.8,2.23,7.36,4.77,10.49,7.9,4.6,4.61,7.06,10.1,6.6,16.65-.19,2.74-.74,5.47-1.36,8.15-2.55,10.94-3.26,21.96-1.65,33.1,.08,.54,.14,1.08,.23,1.79Z"/><path class="h" d="M380.02,448.52c-.09-.7-.15-1.25-.23-1.79-1.61-11.14-.9-22.16,1.65-33.1,.63-2.68,1.17-5.42,1.36-8.15,.46-6.56-2-12.04-6.6-16.65-3.12-3.13-6.69-5.67-10.49-7.9-.21-.13-.43-.25-.61-.5,.63,.07,1.26,.12,1.89,.21,7.82,1.15,15.08,3.76,21.52,8.4,5.15,3.71,9.02,8.46,11.34,14.4,2.26,5.79,2.88,11.78,1.85,17.89-.68,4.06-1.5,8.09-2.34,12.12-2.54,12.25-2,24.43,.76,36.57,.29,1.27,.59,2.54,.91,3.8,.31,1.24,.65,2.47,.99,3.79-.24-.01-.43,0-.61-.04-11.81-2.37-23.27-5.8-34.09-11.19-8.37-4.18-16.02-9.36-22.36-16.32-3.96-4.34-7.16-9.18-9.34-14.64-2.89-7.24-3.72-14.74-2.69-22.46,.89-6.69,3.06-12.97,6.03-19,.02-.04,.06-.07,.15-.17,.11,1.54,.2,3.03,.32,4.51,.57,6.58,1.5,13.1,3.24,19.49,2.79,10.24,8.96,17.85,18,23.22,4.98,2.95,10.46,4.72,15.94,6.45,1.07,.34,2.15,.66,3.39,1.04Z"/></g><g><path class="g" d="M375.08,380.53c.41-7.37,.82-14.73,1.23-22.1,4.86-3.71,10.09-6.72,15.95-8.55,5.3-1.65,10.48-1.46,15.48,1.09,2.86,1.46,5.28,3.55,7.69,5.63,8.37,7.2,17.63,12.87,28.04,16.61,.15,.05,.29,.14,.47,.24-.12,.15-.19,.26-.28,.34-2.91,2.72-5.75,5.53-8.76,8.14-6.17,5.38-13.42,8.39-21.54,9.33-4.17,.48-8.26-.1-12.31-1.03-7.23-1.66-14.13-4.3-20.88-7.33-1.71-.77-3.41-1.58-5.11-2.36Z"/><path class="h" d="M484.42,366.71c-.21,.2-.44,.39-.62,.61-6.23,7.83-13.03,15.13-20.73,21.55-7.76,6.46-16.15,11.88-25.69,15.37-6,2.19-12.18,3.47-18.6,3.47-.25,0-.49,.06-.74,.1l-3.91-.22c-.31-.07-.63-.17-.95-.21-5.13-.61-9.99-2.09-14.6-4.4-7.45-3.73-13.51-9.13-18.64-15.63-1.71-2.16-3.26-4.45-4.88-6.67v-.15c1.71,.79,3.4,1.6,5.12,2.36,6.75,3.03,13.65,5.66,20.88,7.33,4.05,.93,8.14,1.52,12.31,1.03,8.11-.94,15.36-3.95,21.54-9.33,3-2.62,5.85-5.42,8.76-8.14,.09-.08,.16-.19,.28-.34-.18-.09-.32-.18-.47-.24-10.41-3.74-19.67-9.41-28.04-16.61-2.41-2.07-4.83-4.17-7.69-5.63-5-2.55-10.18-2.74-15.48-1.09-5.86,1.83-11.1,4.84-15.95,8.55l.09-1.65c.45-.8,.86-1.63,1.34-2.41,3.5-5.6,7.98-10.27,13.32-14.13,5.2-3.76,10.91-6.29,17.33-7.08,1.29-.16,2.58-.22,3.87-.33,1.15,.06,2.31,.13,3.46,.19,1.35,.26,2.71,.49,4.05,.78,5.48,1.18,10.29,3.74,14.67,7.15,3.6,2.81,7.1,5.73,10.71,8.53,7.93,6.13,16.82,10.39,26.41,13.18,4.08,1.19,8.25,2.08,12.39,3.11,.17,.04,.35,.02,.52,.04-.02,.3-.03,.6-.05,.9Zm-38.01,6.17c-.91,.93-1.7,1.73-2.49,2.53-4.07,4.06-8.18,8.1-13.1,11.15-8.94,5.53-18.54,7.49-28.91,5.22-6.47-1.41-12.68-3.6-18.77-6.14-1.38-.57-2.73-1.19-4.15-1.8,.04,.12,.05,.17,.08,.21,3.97,5.43,8.53,10.26,14.05,14.14,6.37,4.48,13.4,7.22,21.15,8,5.85,.59,11.62,0,17.3-1.51,9.1-2.41,17.24-6.79,24.81-12.28,9.78-7.09,18.13-15.67,25.69-25.04,.12-.14,.19-.32,.32-.52-1.33-.3-2.57-.57-3.81-.87-1.27-.3-2.53-.62-3.79-.96-12.04-3.17-23.09-8.33-32.78-16.24-3.19-2.6-6.38-5.2-9.66-7.68-4.95-3.74-10.54-5.96-16.72-6.64-6.34-.69-12.34,.54-18.01,3.39-7.1,3.57-12.77,8.8-17.41,15.2-.37,.51-.71,1.05-1.06,1.58,.31-.05,.52-.18,.73-.31,3.74-2.34,7.63-4.32,11.86-5.64,6.21-1.94,12.22-1.59,17.82,1.85,2.34,1.44,4.51,3.19,6.6,4.98,8.52,7.32,17.96,13.04,28.58,16.77,.51,.18,1.02,.38,1.69,.62Z"/><path class="h" d="M446.42,372.88c-.67-.25-1.17-.44-1.69-.62-10.62-3.73-20.06-9.45-28.58-16.77-2.09-1.79-4.26-3.54-6.6-4.98-5.6-3.44-11.6-3.8-17.82-1.85-4.22,1.32-8.12,3.31-11.86,5.64-.21,.13-.42,.26-.73,.31,.35-.53,.69-1.07,1.06-1.58,4.64-6.4,10.31-11.63,17.41-15.2,5.67-2.85,11.67-4.08,18.01-3.39,6.18,.67,11.77,2.89,16.72,6.64,3.28,2.48,6.48,5.08,9.66,7.68,9.69,7.92,20.74,13.08,32.78,16.24,1.26,.33,2.52,.65,3.79,.96,1.24,.3,2.49,.57,3.81,.87-.12,.21-.2,.38-.32,.52-7.56,9.38-15.9,17.95-25.69,25.04-7.57,5.49-15.71,9.87-24.81,12.28-5.68,1.5-11.44,2.1-17.3,1.51-7.75-.78-14.79-3.52-21.15-8-5.52-3.88-10.08-8.71-14.05-14.14-.03-.04-.04-.09-.08-.21,1.42,.62,2.78,1.23,4.15,1.8,6.1,2.54,12.31,4.73,18.77,6.14,10.37,2.27,19.98,.31,28.91-5.22,4.92-3.05,9.02-7.09,13.1-11.15,.8-.79,1.58-1.6,2.49-2.53Z"/></g></g></g><g id="d"><g><g><path class="g" d="M98.85,113.41c5.56-6.54,11.12-13.08,16.68-19.62-1.12-7.02-3.12-13.76-6.6-20-3.14-5.65-7.66-9.63-13.92-11.49-3.58-1.07-7.3-1.24-11-1.42-12.83-.65-25.18-3.29-36.96-8.49-.17-.07-.36-.11-.59-.18-.02,.23-.04,.37-.04,.51,.27,4.63,.42,9.27,.85,13.89,.89,9.49,4.59,17.83,10.68,25.13,3.13,3.75,7.04,6.54,11.2,9,7.43,4.4,15.36,7.71,23.48,10.57,2.06,.73,4.13,1.4,6.2,2.1Z"/><path class="h" d="M18.42,13.27c.16,.13,.29,.29,.47,.39,4.3,2.45,8.54,5.04,12.93,7.31,10.32,5.34,21.23,8.88,32.84,10.07,5.28,.54,10.58,.88,15.87,1.4,6.43,.63,12.54,2.33,18.11,5.73,1.36,.83,2.69,1.73,4.04,2.59,1.02,.87,2.05,1.74,3.07,2.61,1,1.13,2.04,2.22,3,3.39,4.78,5.81,7.57,12.53,8.94,19.86,1.41,7.53,1.44,15.07-.1,22.59-.21,1.05-.53,2.07-.8,3.11l-1.25,1.47c-1.12-7.02-3.12-13.76-6.6-20-3.14-5.65-7.66-9.63-13.92-11.49-3.58-1.07-7.3-1.24-11-1.42-12.83-.65-25.18-3.29-36.96-8.49-.17-.07-.36-.11-.59-.18-.02,.23-.04,.37-.04,.51,.27,4.63,.42,9.27,.85,13.89,.89,9.49,4.59,17.83,10.68,25.13,3.13,3.75,7.04,6.54,11.2,9,7.43,4.4,15.36,7.71,23.48,10.57,2.06,.73,4.13,1.4,6.2,2.1l-.11,.13c-3.16,.58-6.3,1.26-9.47,1.71-9.53,1.36-18.97,1.06-28.24-1.77-5.74-1.75-11.03-4.4-15.84-8-.3-.22-.64-.39-.96-.58-1.16-.98-2.31-1.97-3.47-2.95-.18-.22-.34-.47-.54-.67-5.41-5.14-9.59-11.18-12.89-17.84-5.25-10.59-7.98-21.89-9.34-33.56-1.35-11.59-1.22-23.19-.2-34.79,.03-.33-.02-.68-.03-1.01,.23-.27,.45-.53,.68-.8Zm28.34,37.31c11.94,5.37,24.49,8.12,37.55,8.78,3.2,.16,6.43,.43,9.56,1.09,7.48,1.59,12.83,6.11,16.51,12.73,2.5,4.5,4.19,9.3,5.47,14.27,.07,.28,.15,.56,.36,.85,.13-.73,.28-1.45,.37-2.18,1.22-9.11,.64-18.07-2.49-26.77-2.5-6.95-6.57-12.8-12.47-17.3-5.75-4.39-12.25-7-19.42-7.81-4.75-.54-9.53-.91-14.3-1.28-14.52-1.1-27.97-5.6-40.66-12.59-1.33-.73-2.65-1.48-3.96-2.23-1.29-.74-2.56-1.52-3.92-2.32-.06,.27-.14,.48-.15,.7-1.14,13.97-.99,27.89,1.57,41.71,1.98,10.7,5.33,20.92,11.08,30.25,3.58,5.82,7.97,10.95,13.37,15.14,7.17,5.56,15.29,8.89,24.25,10.22,7.77,1.15,15.49,.74,23.18-.65,.05,0,.1-.05,.23-.11-1.69-.62-3.32-1.19-4.94-1.81-7.18-2.74-14.17-5.88-20.75-9.88-10.56-6.4-17.09-15.76-20.19-27.59-1.71-6.51-1.92-13.21-2.1-19.9-.03-1.31-.05-2.62-.07-4.13,.76,.33,1.35,.57,1.92,.83Z"/><path class="h" d="M44.84,49.75c.76,.33,1.35,.57,1.92,.83,11.94,5.37,24.49,8.12,37.55,8.78,3.2,.16,6.43,.43,9.56,1.09,7.48,1.59,12.83,6.11,16.51,12.73,2.5,4.5,4.19,9.3,5.47,14.27,.07,.28,.15,.56,.36,.85,.13-.73,.28-1.45,.37-2.18,1.22-9.11,.64-18.07-2.49-26.77-2.5-6.95-6.57-12.8-12.47-17.3-5.75-4.39-12.25-7-19.42-7.81-4.75-.54-9.53-.91-14.3-1.28-14.52-1.1-27.97-5.6-40.66-12.59-1.33-.73-2.65-1.48-3.96-2.23-1.29-.74-2.56-1.52-3.92-2.32-.06,.27-.14,.48-.15,.7-1.14,13.97-.99,27.89,1.57,41.71,1.98,10.7,5.33,20.92,11.08,30.25,3.58,5.82,7.97,10.95,13.37,15.14,7.17,5.56,15.29,8.89,24.25,10.22,7.77,1.15,15.49,.74,23.18-.65,.05,0,.1-.05,.23-.11-1.69-.62-3.32-1.19-4.94-1.81-7.18-2.74-14.17-5.88-20.75-9.88-10.56-6.4-17.09-15.76-20.19-27.59-1.71-6.51-1.92-13.21-2.1-19.9-.03-1.31-.05-2.62-.07-4.13Z"/></g><g><path class="g" d="M159.69,107.8c-6.58,3.33-13.17,6.66-19.75,9.99-5.64-2.35-10.86-5.38-15.38-9.54-4.08-3.76-6.5-8.34-6.8-13.95-.17-3.21,.44-6.35,1.03-9.48,2.04-10.85,2.32-21.7,.35-32.59-.03-.16-.02-.32-.03-.53,.19,.03,.32,.04,.43,.07,3.81,1.16,7.66,2.22,11.43,3.51,7.75,2.66,13.97,7.43,18.85,13.98,2.5,3.37,4.04,7.2,5.26,11.17,2.18,7.09,3.35,14.38,4.1,21.75,.19,1.87,.34,3.74,.51,5.61Z"/><path class="h" d="M93.03,20.03c.28,.08,.56,.19,.84,.23,9.9,1.48,19.62,3.71,29.03,7.17,9.48,3.49,18.37,8.04,26.16,14.56,4.9,4.1,9.1,8.81,12.31,14.37,.12,.21,.3,.39,.45,.59l1.77,3.49c.1,.31,.17,.63,.29,.92,2.04,4.74,3.19,9.7,3.5,14.84,.5,8.32-1.15,16.27-4.21,23.95-1.02,2.56-2.22,5.05-3.34,7.57l-.13,.07c-.17-1.87-.32-3.74-.51-5.61-.75-7.36-1.92-14.65-4.1-21.75-1.22-3.97-2.76-7.81-5.26-11.17-4.87-6.56-11.1-11.33-18.85-13.98-3.77-1.29-7.62-2.35-11.43-3.51-.12-.04-.24-.04-.43-.07,.01,.21,0,.37,.03,.53,1.97,10.89,1.69,21.74-.35,32.59-.59,3.13-1.19,6.27-1.03,9.48,.3,5.6,2.72,10.18,6.8,13.95,4.52,4.16,9.74,7.19,15.38,9.54l-1.48,.75c-.92,.02-1.84,.07-2.76,.04-6.59-.23-12.89-1.78-18.9-4.47-5.85-2.62-10.9-6.3-14.79-11.47-.78-1.03-1.49-2.12-2.23-3.19-.52-1.03-1.04-2.06-1.56-3.09-.45-1.3-.93-2.59-1.35-3.89-1.72-5.33-1.91-10.78-1.14-16.28,.63-4.52,1.41-9.02,2.02-13.54,1.34-9.93,.59-19.76-1.8-29.46-1.02-4.13-2.32-8.19-3.5-12.28-.05-.16-.15-.31-.23-.47,.27-.14,.54-.27,.81-.41Zm24.35,29.82c1.26,.33,2.35,.6,3.44,.89,5.55,1.5,11.11,3.03,16.21,5.76,9.26,4.97,15.76,12.31,18.98,22.42,2.01,6.31,3.23,12.78,4.07,19.33,.19,1.48,.34,2.96,.52,4.49,.08-.1,.12-.13,.14-.17,2.71-6.15,4.61-12.52,5.21-19.24,.69-7.75-.46-15.21-3.65-22.32-2.41-5.36-5.82-10.06-9.96-14.22-6.64-6.68-14.5-11.53-23.04-15.35-11.03-4.92-22.63-7.86-34.53-9.72-.18-.03-.37,0-.61-.01,.4,1.3,.79,2.52,1.15,3.74,.37,1.25,.73,2.5,1.07,3.76,3.28,12.01,4.34,24.16,2.33,36.51-.66,4.06-1.31,8.13-1.82,12.21-.76,6.16,.11,12.11,2.62,17.8,2.57,5.83,6.64,10.41,11.94,13.9,6.64,4.36,14,6.66,21.87,7.47,.63,.07,1.26,.09,1.9,.13-.2-.24-.42-.36-.63-.48-3.89-2.07-7.56-4.45-10.82-7.44-4.79-4.41-7.49-9.78-7.31-16.35,.08-2.74,.5-5.5,1.01-8.2,2.08-11.04,2.31-22.08,.23-33.14-.1-.54-.18-1.07-.3-1.77Z"/><path class="h" d="M117.38,49.85c.12,.7,.2,1.24,.3,1.77,2.08,11.06,1.85,22.1-.23,33.14-.51,2.7-.94,5.46-1.01,8.2-.18,6.57,2.52,11.95,7.31,16.35,3.26,3,6.93,5.38,10.82,7.44,.22,.12,.44,.23,.63,.48-.63-.04-1.27-.06-1.9-.13-7.86-.81-15.23-3.11-21.87-7.47-5.3-3.49-9.37-8.07-11.94-13.9-2.51-5.68-3.38-11.64-2.62-17.8,.51-4.08,1.15-8.15,1.82-12.21,2.01-12.35,.95-24.5-2.33-36.51-.34-1.26-.7-2.51-1.07-3.76-.36-1.22-.75-2.44-1.15-3.74,.24,0,.43-.02,.61,.01,11.9,1.86,23.5,4.79,34.53,9.72,8.54,3.81,16.4,8.67,23.04,15.35,4.14,4.17,7.54,8.86,9.96,14.22,3.2,7.11,4.35,14.57,3.65,22.32-.6,6.72-2.5,13.09-5.21,19.24-.02,.04-.06,.08-.14,.17-.18-1.53-.33-3.02-.52-4.49-.85-6.55-2.06-13.02-4.07-19.33-3.22-10.11-9.72-17.45-18.98-22.42-5.1-2.74-10.65-4.27-16.21-5.76-1.09-.29-2.18-.57-3.44-.89Z"/></g><g><path class="g" d="M125.24,117.56c-.09,7.38-.19,14.75-.28,22.13-4.69,3.91-9.79,7.15-15.57,9.23-5.22,1.88-10.41,1.91-15.51-.42-2.92-1.33-5.43-3.32-7.93-5.29-8.67-6.83-18.17-12.1-28.73-15.39-.15-.05-.29-.13-.48-.22,.12-.16,.18-.27,.27-.35,2.79-2.84,5.51-5.77,8.4-8.51,5.94-5.64,13.05-8.95,21.12-10.24,4.14-.66,8.25-.25,12.34,.5,7.3,1.35,14.3,3.69,21.18,6.42,1.74,.69,3.47,1.43,5.2,2.14Z"/><path class="h" d="M16.59,136.06c.2-.21,.43-.4,.6-.64,5.89-8.09,12.37-15.67,19.79-22.42,7.47-6.79,15.63-12.56,25.01-16.46,5.9-2.45,12.02-3.99,18.43-4.27,.25-.01,.49-.08,.73-.13l3.91,.05c.32,.06,.63,.14,.95,.17,5.15,.39,10.07,1.66,14.78,3.77,7.61,3.4,13.89,8.54,19.29,14.81,1.8,2.09,3.45,4.3,5.16,6.46v.15c-1.74-.72-3.46-1.45-5.21-2.14-6.88-2.74-13.88-5.07-21.18-6.42-4.08-.76-8.2-1.17-12.34-.5-8.07,1.29-15.18,4.6-21.12,10.24-2.89,2.74-5.61,5.67-8.4,8.51-.08,.09-.15,.19-.27,.35,.19,.09,.33,.17,.48,.22,10.56,3.29,20.06,8.56,28.73,15.39,2.5,1.97,5,3.96,7.93,5.29,5.1,2.33,10.28,2.3,15.51,.42,5.78-2.08,10.88-5.31,15.57-9.23l-.02,1.66c-.41,.82-.79,1.66-1.24,2.46-3.25,5.74-7.54,10.6-12.7,14.69-5.03,3.98-10.63,6.75-17.01,7.81-1.28,.21-2.57,.33-3.86,.5-1.15-.01-2.31-.03-3.46-.04-1.36-.2-2.72-.37-4.08-.6-5.52-.94-10.44-3.29-14.96-6.52-3.72-2.65-7.34-5.42-11.07-8.06-8.18-5.79-17.25-9.66-26.95-12.04-4.13-1.01-8.34-1.73-12.51-2.57-.17-.03-.35,0-.52-.01,0-.3,0-.6,.01-.9Zm37.71-7.79c.87-.96,1.62-1.8,2.38-2.63,3.9-4.23,7.82-8.45,12.61-11.7,8.69-5.91,18.2-8.28,28.66-6.46,6.52,1.13,12.82,3.05,19.02,5.33,1.4,.51,2.78,1.07,4.22,1.62-.05-.11-.06-.17-.09-.2-4.2-5.25-8.96-9.88-14.64-13.52-6.55-4.2-13.7-6.63-21.48-7.08-5.87-.34-11.61,.51-17.22,2.25-8.99,2.8-16.93,7.52-24.26,13.33-9.47,7.5-17.44,16.43-24.59,26.12-.11,.15-.18,.33-.29,.54,1.34,.24,2.6,.46,3.85,.71,1.28,.25,2.56,.52,3.83,.79,12.16,2.65,23.42,7.33,33.44,14.82,3.29,2.46,6.6,4.92,9.98,7.26,5.1,3.52,10.79,5.5,16.99,5.91,6.36,.42,12.31-1.07,17.85-4.16,6.94-3.87,12.38-9.34,16.74-15.93,.35-.53,.66-1.08,.99-1.62-.31,.06-.51,.2-.72,.34-3.63,2.49-7.44,4.65-11.6,6.15-6.12,2.21-12.14,2.11-17.88-1.09-2.4-1.34-4.64-2.99-6.81-4.69-8.83-6.95-18.5-12.26-29.28-15.53-.52-.16-1.04-.33-1.71-.55Z"/><path class="h" d="M54.29,128.27c.68,.22,1.19,.39,1.71,.55,10.77,3.27,20.45,8.58,29.28,15.53,2.16,1.7,4.41,3.36,6.81,4.69,5.74,3.2,11.76,3.29,17.88,1.09,4.16-1.5,7.97-3.65,11.6-6.15,.2-.14,.41-.28,.72-.34-.33,.54-.64,1.09-.99,1.62-4.36,6.59-9.8,12.06-16.74,15.93-5.54,3.09-11.49,4.58-17.85,4.16-6.2-.41-11.88-2.39-16.99-5.91-3.38-2.34-6.69-4.79-9.98-7.26-10.02-7.49-21.28-12.18-33.44-14.82-1.27-.28-2.55-.54-3.83-.79-1.25-.24-2.51-.46-3.85-.71,.11-.21,.18-.39,.29-.54,7.15-9.69,15.12-18.62,24.59-26.12,7.33-5.81,15.27-10.53,24.26-13.33,5.61-1.74,11.34-2.59,17.22-2.25,7.78,.45,14.92,2.88,21.48,7.08,5.68,3.64,10.45,8.27,14.64,13.52,.03,.04,.04,.09,.09,.2-1.44-.55-2.83-1.11-4.22-1.62-6.2-2.28-12.5-4.2-19.02-5.33-10.46-1.82-19.97,.55-28.66,6.46-4.79,3.25-8.71,7.47-12.61,11.7-.76,.83-1.51,1.67-2.38,2.63Z"/></g></g></g></svg>